<svg width="35" height="35" viewBox="0 0 35 35" fill="none" xmlns="http://www.w3.org/2000/svg">
<path fill-rule="evenodd" clip-rule="evenodd" d="M25.5689 3.14371H9.43114C5.95869 3.14371 3.14371 5.95869 3.14371 9.43114V25.5689C3.14371 29.0413 5.95869 31.8563 9.43114 31.8563H18.2335C25.7572 31.8563 31.8563 25.7572 31.8563 18.2335V9.43114C31.8563 5.95869 29.0413 3.14371 25.5689 3.14371ZM9.43114 0C4.22246 0 0 4.22246 0 9.43114V25.5689C0 30.7775 4.22246 35 9.43114 35H18.2335C27.4934 35 35 27.4934 35 18.2335V9.43114C35 4.22246 30.7775 0 25.5689 0H9.43114Z" fill="#0D6DC6"/>
<path fill-rule="evenodd" clip-rule="evenodd" d="M32.7915 20.1986C32.0751 20.6966 31.1957 20.9581 30.1796 20.9581C26.3054 20.9581 24.9807 21.409 24.0522 22.409C23.5933 22.9031 23.2887 23.5032 23.0989 24.5859C22.8995 25.7236 22.8443 27.2874 22.8443 29.6557C22.8443 31.9683 21.8788 33.4843 20.4217 34.2434C19.1005 34.9316 17.614 34.8704 16.6675 34.6502L17.2846 31.9965C17.8401 32.1257 18.6066 32.1168 19.1629 31.827C19.5833 31.6081 20.1198 31.1156 20.1198 29.6557C20.1198 27.3084 20.1693 25.5189 20.4153 24.1155C20.6709 22.6571 21.1522 21.528 22.0556 20.5551C23.8516 18.6209 26.2994 18.2336 30.1796 18.2336C30.7144 18.2336 31.0341 18.1021 31.2361 17.9616C31.4461 17.8156 31.6215 17.595 31.7578 17.2826C32.0489 16.6156 32.0753 15.7201 31.9773 15.0897L34.6694 14.6709C34.8159 15.6122 34.8213 17.0746 34.2549 18.3724C33.9625 19.0424 33.5 19.7059 32.7915 20.1986Z" fill="#0D6DC6"/>
</svg>
